# xmcd
#
# Track frame offsets:
#	150
#	17640
#	35205
#	52151
#	69420
#	84975
#	100927
#	118615
#	134025
#	148966
#	162101
#	179699
#	194854
#
# Disc length: 2776 seconds
#
# Revision: 2
# Processed by: cddbd v1.5.2PL0 Copyright (c) Steve Scherf et al.
# Submitted via: audiograbber 1.83.01
#
DISCID=cb0ad60d
DTITLE=Various Artist - CDX 026
DYEAR=1992
DGENRE=Country
TTITLE0=Texas Tornados - Did I Tell You
TTITLE1=Wayland Patton - Gulf Stream Dreamin'
TTITLE2=David Lynn Jones - Her Love Don't Lie
TTITLE3=Billy Joe Royal - I'm Okay (And Gettin' Better)
TTITLE4=Rodney Crowell - Lovin' All Night
TTITLE5=Skip Ewing - Naturally
TTITLE6=Clinton Gregory - Play Ruby Play
TTITLE7=Terry McBride - Sacred Ground
TTITLE8=Sawyer Brown - Some Girls Do
TTITLE9=Deanny Cox - Texas Sidestep
TTITLE10=Trisha Yearwood - The Woman Before Me
TTITLE11=Jeff Knight - They've Been Talkin' About Me
TTITLE12=Martin Delray - Who, What, Where, When, Why, How
EXTD=
EXTT0=
EXTT1=
EXTT2=
EXTT3=
EXTT4=
EXTT5=
EXTT6=
EXTT7=
EXTT8=
EXTT9=
EXTT10=
EXTT11=
EXTT12=
PLAYORDER=
